# File created by Blade
# Date/Time:  Tue Apr 07 20:57:01 2015
#---------------------------------------------------------
:version 1.10
:name HOM
:units
  mass 1.0
  length 1.000000
  angle deg
:documentation
     Acclaim Skeleton File
:root
   axis xyz
   order TX TY TZ RX RY RZ
   position 0.000000 0.000000 0.000000
   orientation 0 0 0
:bonedata
   begin
      id 1
      name Spine_dum
      direction 0.000000 1.000000 0.000000
      length 4.885285
      axis 0.0 0.0 0.0 xyz
   end
   begin
      id 2
      name LeftUpLeg_dum
      direction 1.000000 0.000000 0.000000
      length 2.672193
      axis 0.0 0.0 0.0 xyz
   end
   begin
      id 3
      name RightUpLeg_dum
      direction -1.000000 0.000000 0.000000
      length 2.672193
      axis 0.0 0.0 0.0 xyz
   end
   begin
      id 4
      name Spine
      direction 0.000000 1.000000 0.000000
      length 0.000000
      axis 0.0 0.0 0.0 xyz
      dof rx ry rz
   end
   begin
      id 5
      name Spine_dum1
      direction 0.000000 1.000000 0.000000
      length 16.494159
      axis 0.0 0.0 0.0 xyz
   end
   begin
      id 6
      name Spine_dum2
      direction 0.000000 1.000000 0.000000
      length 10.663448
      axis 0.0 0.0 0.0 xyz
   end
   begin
      id 7
      name Spine_dum3
      direction 0.000000 1.000000 0.000000
      length 10.663448
      axis 0.0 0.0 0.0 xyz
   end
   begin
      id 8
      name Head
      direction 0.000000 1.000000 0.000000
      length 4.527550
      axis 0.0 0.0 0.0 xyz
      dof rx ry rz
   end
   begin
      id 9
      name LeftShoulder
      direction 1.000000 0.000000 0.000000
      length 7.531907
      axis 0.0 0.0 -90.0 xyz
      dof rx ry rz
   end
   begin
      id 10
      name LeftArm
      direction 1.000000 0.000000 0.000000
      length 10.229199
      axis 0.0 0.0 -90.0 xyz
      dof rx ry rz
   end
   begin
      id 11
      name LeftForeArm
      direction 1.000000 0.000000 0.000000
      length 8.673495
      axis 0.0 0.0 -90.0 xyz
      dof ry rz rx
   end
   begin
      id 12
      name LeftHand
      direction 0.000000 0.000000 0.000000
      length 0.000000
      axis 0.0 0.0 -90.0 xyz
      dof rx ry rz
   end
   begin
      id 13
      name LeftHand_dum1
      direction 0.000000 0.000000 0.000000
      length 0.000000
      axis 0.0 0.0 -90.0 xyz
   end
   begin
      id 14
      name LeftHand_dum2
      direction 1.000000 0.000000 0.000000
      length 3.937000
      axis 0.0 0.0 -90.0 xyz
   end
   begin
      id 15
      name LeftHandThumb1
      direction 0.000000 0.000000 1.000000
      length 3.937000
      axis 0.0 0.0 -90.0 xyz
      dof rx rz ry
   end
   begin
      id 16
      name RightShoulder
      direction -1.000000 0.000000 0.000000
      length 7.531907
      axis 0.0 0.0 90.0 xyz
      dof rx ry rz
   end
   begin
      id 17
      name RightArm
      direction -1.000000 0.000000 0.000000
      length 10.229199
      axis 0.0 0.0 90.0 xyz
      dof rx ry rz
   end
   begin
      id 18
      name RightForeArm
      direction -1.000000 0.000000 0.000000
      length 8.673495
      axis 0.0 0.0 90.0 xyz
      dof ry rz rx
   end
   begin
      id 19
      name RightHand
      direction 0.000000 0.000000 0.000000
      length 0.000000
      axis 0.0 0.0 90.0 xyz
      dof rx ry rz
   end
   begin
      id 20
      name RightHand_dum1
      direction 0.000000 0.000000 0.000000
      length 0.000000
      axis 0.0 0.0 90.0 xyz
   end
   begin
      id 21
      name RightHand_dum2
      direction -1.000000 0.000000 0.000000
      length 3.937000
      axis 0.0 0.0 90.0 xyz
   end
   begin
      id 22
      name RightHandThumb1
      direction 0.000000 0.000000 1.000000
      length 3.937000
      axis 0.0 0.0 90.0 xyz
      dof rx rz ry
   end
   begin
      id 23
      name LeftUpLeg
      direction 0.000000 -1.000000 0.000000
      length 16.263388
      axis 0.0 0.0 0.0 xyz
      dof rx ry rz
   end
   begin
      id 24
      name LeftLeg
      direction 0.000000 -1.000000 0.000000
      length 14.328163
      axis 0.0 0.0 0.0 xyz
      dof rx ry rz
   end
   begin
      id 25
      name LeftFoot
      direction 0.000000 -0.258819 0.965926
      length 5.031290
      axis 15.0 0.0 0.0 xyz
      dof rx ry rz
   end
   begin
      id 26
      name LeftToeBase
      direction 0.000000 0.000000 1.000000
      length 2.952750
      axis 0.0 0.0 0.0 xyz
      dof rx ry rz
   end
   begin
      id 27
      name RightUpLeg
      direction 0.000000 -1.000000 0.000000
      length 16.263388
      axis 0.0 0.0 0.0 xyz
      dof rx ry rz
   end
   begin
      id 28
      name RightLeg
      direction 0.000000 -1.000000 0.000000
      length 14.328163
      axis 0.0 0.0 0.0 xyz
      dof rx ry rz
   end
   begin
      id 29
      name RightFoot
      direction 0.000000 -0.258819 0.965926
      length 5.031290
      axis 15.0 0.0 0.0 xyz
      dof rx ry rz
   end
   begin
      id 30
      name RightToeBase
      direction 0.000000 0.000000 1.000000
      length 2.952750
      axis 0.0 0.0 0.0 xyz
      dof rx ry rz
   end
:hierarchy
   begin
      root Spine_dum LeftUpLeg_dum RightUpLeg_dum
      Spine_dum Spine
      LeftUpLeg_dum LeftUpLeg
      RightUpLeg_dum RightUpLeg
      Spine Spine_dum1 Spine_dum2 Spine_dum3
      Spine_dum1 Head
      Spine_dum2 LeftShoulder
      Spine_dum3 RightShoulder
      LeftShoulder LeftArm
      LeftArm LeftForeArm
      LeftForeArm LeftHand
      LeftHand LeftHand_dum1 LeftHand_dum2
      LeftHand_dum1 LeftHandThumb1
      RightShoulder RightArm
      RightArm RightForeArm
      RightForeArm RightHand
      RightHand RightHand_dum1 RightHand_dum2
      RightHand_dum1 RightHandThumb1
      LeftUpLeg LeftLeg
      LeftLeg LeftFoot
      LeftFoot LeftToeBase
      RightUpLeg RightLeg
      RightLeg RightFoot
      RightFoot RightToeBase
   end

# File created by Blade
# Date/Time:  Tue Apr 07 20:57:09 2015
# Frame Rate: 120.000 fps
#------------------------------------------------------
:FULLY-SPECIFIED
:DEGREES
36
root 1.192245 32.891470 1.336930 4.785173 2.535076 -2.065465
Spine -7.450911 -7.439693 0.217954
Head 15.708677 -2.675349 0.651209
LeftShoulder -22.965500 43.640224 18.127798
LeftArm 62.910486 -57.159680 -62.487793
LeftForeArm 8.507573 -0.000000 -4.347265
LeftHand 2.179046 -0.000000 6.099912
LeftHandThumb1 -26.253704 0.000000 33.147579
RightShoulder -9.116918 3.325892 -31.331087
RightArm 16.061963 15.139632 39.325416
RightForeArm -14.850341 -0.000000 0.448567
RightHand 4.541091 -0.000000 -0.391485
RightHandThumb1 -24.326973 -0.000000 -32.862282
LeftUpLeg 2.554579 -6.593457 1.784876
LeftLeg -5.003741 -0.000000 0.000000
LeftFoot -4.465302 6.568369 -16.958214
LeftToeBase -8.626228 -0.000000 0.000000
RightUpLeg 2.580654 -2.132567 3.977289
RightLeg -4.074690 -0.000000 0.000000
RightFoot -6.065162 -8.937724 8.201426
RightToeBase -1.363626 -0.000000 0.000000
37
root 1.189897 32.890287 1.340658 4.809150 2.519671 -2.070012
Spine -7.429198 -7.457360 0.194377
Head 15.623356 -2.728669 0.719975
LeftShoulder -23.048086 43.666176 18.207637
LeftArm 62.846776 -57.561429 -62.409815
LeftForeArm 8.534909 -0.000000 -4.277895
LeftHand 2.086760 -0.000000 6.049834
LeftHandThumb1 -26.253704 0.000000 33.147579
RightShoulder -9.206366 3.375933 -31.418557
RightArm 16.085821 15.182847 39.123802
RightForeArm -14.964647 0.000000 0.431383
RightHand 4.620629 -0.000000 -0.411996
RightHandThumb1 -24.326973 -0.000000 -32.862282
LeftUpLeg 2.538013 -6.566412 1.795949
LeftLeg -5.007741 -0.000000 0.000000
LeftFoot -4.435600 6.534216 -17.011652
LeftToeBase -8.793045 -0.000000 0.000000
RightUpLeg 2.570304 -2.126890 3.984671
RightLeg -4.089521 -0.000000 0.000000
RightFoot -6.066348 -8.925656 8.203652
RightToeBase -1.363799 -0.000000 0.000000
38
root 1.187091 32.889968 1.343351 4.835263 2.495828 -2.072187
Spine -7.404482 -7.456829 0.174735
Head 15.539439 -2.796565 0.754156
LeftShoulder -23.103390 43.621874 18.304849
LeftArm 62.519572 -57.903381 -62.045940
LeftForeArm 8.539427 0.000000 -4.221672
LeftHand 2.123735 -0.000000 6.188979
LeftHandThumb1 -26.253704 0.000000 33.147579
RightShoulder -9.287020 3.384076 -31.491410
RightArm 16.090461 15.277351 38.863850
RightForeArm -15.018963 -0.000000 0.457667
RightHand 4.463248 -0.000000 -0.403881
RightHandThumb1 -24.326973 -0.000000 -32.862282
LeftUpLeg 2.522520 -6.548522 1.802532
LeftLeg -5.015296 -0.000000 0.000000
LeftFoot -4.441238 6.543759 -17.017969
LeftToeBase -8.855075 -0.000000 0.000000
RightUpLeg 2.550046 -2.108136 3.990034
RightLeg -4.093199 -0.000000 0.000000
RightFoot -6.064201 -8.917837 8.185389
RightToeBase -1.363747 -0.000000 0.000000
39
root 1.184843 32.889477 1.346934 4.857486 2.470565 -2.071782
Spine -7.370978 -7.459271 0.151889
Head 15.443162 -2.867241 0.789571
LeftShoulder -23.192667 43.588514 18.387373
LeftArm 62.375265 -58.324795 -61.880095
LeftForeArm 8.634133 -0.000000 -4.140968
LeftHand 2.197612 -0.000000 6.104260
LeftHandThumb1 -26.253704 0.000000 33.147579
RightShoulder -9.385148 3.420925 -31.587039
RightArm 16.044901 15.300988 38.580121
RightForeArm -15.078209 -0.000000 0.576790
RightHand 4.384799 -0.000000 -0.360501
RightHandThumb1 -24.326973 -0.000000 -32.862282
LeftUpLeg 2.508502 -6.530027 1.806840
LeftLeg -5.008976 -0.000000 0.000000
LeftFoot -4.467195 6.540516 -17.051215
LeftToeBase -8.831143 -0.000000 0.000000
RightUpLeg 2.539492 -2.079433 3.990227
RightLeg -4.103238 -0.000000 0.000000
RightFoot -6.077554 -8.903556 8.215617
RightToeBase -1.329674 -0.000000 0.000000
40
root 1.182926 32.890069 1.349575 4.874094 2.449383 -2.078268
Spine -7.333030 -7.433464 0.138771
Head 15.365890 -2.966160 0.803640
LeftShoulder -23.199416 43.530116 18.529780
LeftArm 61.945767 -58.662458 -61.413802
LeftForeArm 8.486504 -0.000000 -4.070728
LeftHand 1.908482 -0.000000 6.218266
LeftHandThumb1 -26.253704 0.000000 33.147579
RightShoulder -9.509104 3.487660 -31.695425
RightArm 15.967027 15.414403 38.294543
RightForeArm -15.285815 0.000000 0.721679
RightHand 4.287040 -0.000000 -0.353722
RightHandThumb1 -24.326973 -0.000000 -32.862282
LeftUpLeg 2.499766 -6.525424 1.815104
LeftLeg -5.011514 -0.000000 0.000000
LeftFoot -4.473731 6.563884 -17.051959
LeftToeBase -8.832308 -0.000000 0.000000
RightUpLeg 2.524080 -2.066730 3.998358
RightLeg -4.098212 -0.000000 0.000000
RightFoot -6.079417 -8.902012 8.215499
RightToeBase -1.304297 -0.000000 0.000000
41
root 1.181773 32.890310 1.353808 4.908492 2.427108 -2.079695
Spine -7.317605 -7.464107 0.123288
Head 15.284166 -2.992720 0.855766
LeftShoulder -23.301816 43.457238 18.648282
LeftArm 61.677383 -59.059622 -61.163398
LeftForeArm 8.471145 -0.000000 -3.974950
LeftHand 1.816501 -0.000000 6.175765
LeftHandThumb1 -26.253704 0.000000 33.147579
RightShoulder -9.581181 3.537822 -31.776590
RightArm 15.924569 15.418579 37.942371
RightForeArm -15.351592 -0.000000 0.805933
RightHand 4.175617 -0.000000 -0.389888
RightHandThumb1 -24.326973 -0.000000 -32.862282
LeftUpLeg 2.479030 -6.533653 1.814787
LeftLeg -5.012085 -0.000000 0.000000
LeftFoot -4.519551 6.623798 -16.954914
LeftToeBase -8.628396 -0.000000 0.000000
RightUpLeg 2.500643 -2.069168 3.998774
RightLeg -4.106995 -0.000000 0.000000
RightFoot -6.063052 -8.866077 8.232744
RightToeBase -1.343954 -0.000000 0.000000
42
root 1.180311 32.890839 1.357292 4.932155 2.404460 -2.079647
Spine -7.289859 -7.460622 0.095511
Head 15.222116 -3.070097 0.908389
LeftShoulder -23.353319 43.385318 18.808710
LeftArm 61.364614 -59.457274 -60.890270
LeftForeArm 8.544039 -0.000000 -3.819286
LeftHand 1.787285 -0.000000 6.230065
LeftHandThumb1 -26.253704 0.000000 33.147579
RightShoulder -9.700678 3.596216 -31.857281
RightArm 15.909341 15.349878 37.567664
RightForeArm -15.410150 0.000000 0.832082
RightHand 4.049531 -0.000000 -0.531007
RightHandThumb1 -24.326973 -0.000000 -32.862282
LeftUpLeg 2.457307 -6.501914 1.816372
LeftLeg -4.998774 -0.000000 0.000000
LeftFoot -4.522818 6.613741 -16.939579
LeftToeBase -8.614463 -0.000000 0.000000
RightUpLeg 2.481152 -2.060898 3.999446
RightLeg -4.103693 -0.000000 0.000000
RightFoot -6.062156 -8.841669 8.227589
RightToeBase -1.312884 -0.000000 0.000000
43
root 1.178655 32.892064 1.360642 4.947084 2.380001 -2.094530
Spine -7.254324 -7.452318 0.092866
Head 15.173819 -3.148525 0.930001
LeftShoulder -23.440155 43.343991 18.930012
LeftArm 61.183260 -59.862739 -60.728685
LeftForeArm 8.604992 -0.000000 -3.695577
LeftHand 1.771339 -0.000000 6.527513
LeftHandThumb1 -26.253704 0.000000 33.147579
RightShoulder -9.799205 3.610442 -31.951252
RightArm 15.873700 15.384697 37.214391
RightForeArm -15.473588 0.000000 0.911126
RightHand 4.011928 -0.000000 -0.672501
RightHandThumb1 -24.326973 -0.000000 -32.862282
LeftUpLeg 2.446463 -6.484859 1.832745
LeftLeg -4.997253 -0.000000 0.000000
LeftFoot -4.497963 6.611862 -17.030787
LeftToeBase -8.806784 -0.000000 0.000000
RightUpLeg 2.466124 -2.049042 4.012499
RightLeg -4.093137 -0.000000 0.000000
RightFoot -6.056212 -8.816474 8.242804
RightToeBase -1.327988 -0.000000 0.000000
44
root 1.178684 32.893821 1.363882 4.957677 2.351975 -2.096804
Spine -7.213437 -7.443381 0.075811
Head 15.131958 -3.232700 0.962294
LeftShoulder -23.479310 43.233282 19.091715
LeftArm 60.923331 -60.320827 -60.562186
LeftForeArm 8.845514 -0.000000 -3.489305
LeftHand 1.703633 -0.000000 6.634509
LeftHandThumb1 -26.253704 0.000000 33.147579
RightShoulder -9.887338 3.583601 -32.027278
RightArm 15.864419 15.445675 36.843442
RightForeArm -15.502073 -0.000000 0.923297
RightHand 3.907392 -0.000000 -0.713466
RightHandThumb1 -24.326973 -0.000000 -32.862282
LeftUpLeg 2.436707 -6.467849 1.828760
LeftLeg -4.973215 -0.000000 0.000000
LeftFoot -4.535187 6.649748 -16.909616
LeftToeBase -8.623974 -0.000000 0.000000
RightUpLeg 2.465049 -2.034901 4.009926
RightLeg -4.105648 -0.000000 0.000000
RightFoot -6.027289 -8.791996 8.265744
RightToeBase -1.354388 -0.000000 0.000000
